<mxfile host="app.diagrams.net" agent="Mozilla/5.0 (X11; Ubuntu; Linux x86_64; rv:130.0) Gecko/20100101 Firefox/130.0" version="24.7.13">
  <diagram name="Page-1" id="sIQOChHxDy1Jt6XBbkkj">
    <mxGraphModel dx="1362" dy="795" grid="1" gridSize="10" guides="1" tooltips="1" connect="1" arrows="1" fold="1" page="1" pageScale="1" pageWidth="850" pageHeight="1100" math="0" shadow="0">
      <root>
        <mxCell id="0" />
        <mxCell id="1" parent="0" />
        <mxCell id="BjdPIeY4YxCnDbGahezC-20" value="" style="ellipse;whiteSpace=wrap;html=1;labelBackgroundColor=default;labelBorderColor=none;" vertex="1" parent="1">
          <mxGeometry x="405" y="180" width="40" height="120" as="geometry" />
        </mxCell>
        <mxCell id="BjdPIeY4YxCnDbGahezC-1" value="RC Receiver" style="shape=process;whiteSpace=wrap;html=1;backgroundOutline=1;fillColor=#FF9933;" vertex="1" parent="1">
          <mxGeometry x="410" y="350" width="100" height="60" as="geometry" />
        </mxCell>
        <mxCell id="BjdPIeY4YxCnDbGahezC-2" value="Pixhawk v6x" style="shape=process;whiteSpace=wrap;html=1;backgroundOutline=1;align=left;verticalAlign=top;fillColor=#E6E6E6;" vertex="1" parent="1">
          <mxGeometry x="500" y="180" width="240" height="120" as="geometry" />
        </mxCell>
        <mxCell id="BjdPIeY4YxCnDbGahezC-3" value="" style="endArrow=classic;html=1;rounded=0;exitX=1;exitY=0.5;exitDx=0;exitDy=0;entryX=0.5;entryY=1;entryDx=0;entryDy=0;" edge="1" parent="1" source="BjdPIeY4YxCnDbGahezC-1" target="BjdPIeY4YxCnDbGahezC-2">
          <mxGeometry width="50" height="50" relative="1" as="geometry">
            <mxPoint x="560" y="380" as="sourcePoint" />
            <mxPoint x="610" y="330" as="targetPoint" />
            <Array as="points">
              <mxPoint x="620" y="380" />
            </Array>
          </mxGeometry>
        </mxCell>
        <mxCell id="BjdPIeY4YxCnDbGahezC-4" value="PX4" style="rounded=1;whiteSpace=wrap;html=1;fontStyle=1;fontColor=#FFFFFF;fillColor=#333333;" vertex="1" parent="1">
          <mxGeometry x="560" y="210" width="120" height="60" as="geometry" />
        </mxCell>
        <mxCell id="BjdPIeY4YxCnDbGahezC-5" value="SBUS" style="text;html=1;align=center;verticalAlign=middle;whiteSpace=wrap;rounded=0;" vertex="1" parent="1">
          <mxGeometry x="560" y="380" width="60" height="30" as="geometry" />
        </mxCell>
        <mxCell id="BjdPIeY4YxCnDbGahezC-7" value="" style="shape=flexArrow;endArrow=classic;html=1;rounded=0;fillColor=#f57900;" edge="1" parent="1">
          <mxGeometry width="50" height="50" relative="1" as="geometry">
            <mxPoint x="740" y="239.5" as="sourcePoint" />
            <mxPoint x="840" y="240" as="targetPoint" />
          </mxGeometry>
        </mxCell>
        <mxCell id="BjdPIeY4YxCnDbGahezC-8" value="PWM&lt;br&gt;Motors" style="text;html=1;align=center;verticalAlign=middle;whiteSpace=wrap;rounded=0;" vertex="1" parent="1">
          <mxGeometry x="750" y="200" width="60" height="30" as="geometry" />
        </mxCell>
        <mxCell id="BjdPIeY4YxCnDbGahezC-10" value="RPi CM4" style="shape=process;whiteSpace=wrap;html=1;backgroundOutline=1;align=left;verticalAlign=top;fillColor=#8AE234;" vertex="1" parent="1">
          <mxGeometry x="50" y="180" width="200" height="120" as="geometry" />
        </mxCell>
        <mxCell id="BjdPIeY4YxCnDbGahezC-11" value="DroneLeaf FC" style="rounded=1;whiteSpace=wrap;html=1;labelBackgroundColor=none;fillColor=#4e9a06;fontStyle=1;fontColor=#ffffff;" vertex="1" parent="1">
          <mxGeometry x="90" y="210" width="120" height="60" as="geometry" />
        </mxCell>
        <mxCell id="BjdPIeY4YxCnDbGahezC-13" value="" style="endArrow=classic;html=1;rounded=0;entryX=1;entryY=0.75;entryDx=0;entryDy=0;strokeColor=#0047ff;" edge="1" parent="1">
          <mxGeometry width="50" height="50" relative="1" as="geometry">
            <mxPoint x="500" y="280" as="sourcePoint" />
            <mxPoint x="250" y="280" as="targetPoint" />
          </mxGeometry>
        </mxCell>
        <mxCell id="BjdPIeY4YxCnDbGahezC-14" value="RC Commands" style="text;html=1;align=center;verticalAlign=middle;whiteSpace=wrap;rounded=0;" vertex="1" parent="1">
          <mxGeometry x="270" y="280" width="120" height="30" as="geometry" />
        </mxCell>
        <mxCell id="BjdPIeY4YxCnDbGahezC-16" value="" style="endArrow=classic;html=1;rounded=0;entryX=1;entryY=0.75;entryDx=0;entryDy=0;exitX=0;exitY=0.5;exitDx=0;exitDy=0;strokeColor=#0047ff;" edge="1" parent="1" source="BjdPIeY4YxCnDbGahezC-2">
          <mxGeometry width="50" height="50" relative="1" as="geometry">
            <mxPoint x="540" y="239.5" as="sourcePoint" />
            <mxPoint x="250" y="239.5" as="targetPoint" />
          </mxGeometry>
        </mxCell>
        <mxCell id="BjdPIeY4YxCnDbGahezC-17" value="System States" style="text;html=1;align=center;verticalAlign=middle;whiteSpace=wrap;rounded=0;" vertex="1" parent="1">
          <mxGeometry x="270" y="240" width="120" height="30" as="geometry" />
        </mxCell>
        <mxCell id="BjdPIeY4YxCnDbGahezC-18" value="" style="endArrow=classic;html=1;rounded=0;exitX=1;exitY=0.25;exitDx=0;exitDy=0;strokeColor=#FF0000;" edge="1" parent="1">
          <mxGeometry width="50" height="50" relative="1" as="geometry">
            <mxPoint x="250" y="200" as="sourcePoint" />
            <mxPoint x="500" y="200" as="targetPoint" />
          </mxGeometry>
        </mxCell>
        <mxCell id="BjdPIeY4YxCnDbGahezC-19" value="Motor Commands" style="text;html=1;align=center;verticalAlign=middle;whiteSpace=wrap;rounded=0;" vertex="1" parent="1">
          <mxGeometry x="270" y="200" width="120" height="30" as="geometry" />
        </mxCell>
        <mxCell id="BjdPIeY4YxCnDbGahezC-21" value="Ethernet @200Hz" style="text;html=1;align=center;verticalAlign=middle;whiteSpace=wrap;rounded=0;fontStyle=0" vertex="1" parent="1">
          <mxGeometry x="395" y="140" width="60" height="30" as="geometry" />
        </mxCell>
      </root>
    </mxGraphModel>
  </diagram>
</mxfile>
